<?xml version="1.0" encoding="utf-8"?>
<!-- Generator: Adobe Illustrator 16.0.0, SVG Export Plug-In . SVG Version: 6.00 Build 0)  -->
<!DOCTYPE svg PUBLIC "-//W3C//DTD SVG 1.1//EN" "http://www.w3.org/Graphics/SVG/1.1/DTD/svg11.dtd">
<svg version="1.1" id="Layer_1" xmlns="http://www.w3.org/2000/svg" xmlns:xlink="http://www.w3.org/1999/xlink" x="0px" y="0px"
	 width="263.641px" height="81.61px" viewBox="107.692 9.523 263.641 81.61" enable-background="new 107.692 9.523 263.641 81.61"
	 xml:space="preserve">
<g>
	<path fill="#FFFFFF" stroke="#FFFFFF" stroke-width="2" stroke-miterlimit="10" d="M352.749,218.071h-39.062v-39.062h39.062
		V218.071z M316.692,215.065h33.051v-33.052h-33.051V215.065z"/>
</g>
<g>
	<path fill="#FFFFFF" stroke="#FFFFFF" stroke-width="2" stroke-miterlimit="10" d="M605.874,281.229l-42.961-40.039l1.025-1.1
		c5.531-5.938,13.361-9.344,21.484-9.344c7.451,0,14.562,2.799,20.018,7.883c5.736,5.349,9.049,12.606,9.322,20.447
		c0.275,7.838-2.518,15.315-7.861,21.055L605.874,281.229z M567.19,241.069l38.506,35.885c4.148-4.979,6.295-11.236,6.064-17.771
		c-0.248-7.036-3.221-13.556-8.369-18.354c-4.896-4.562-11.277-7.076-17.969-7.076C578.635,233.75,572.073,236.401,567.19,241.069z"
		/>
</g>
<g>
	<path fill="#FFFFFF" d="M403.797,227.368h-10.711v-5.505h27.568v5.505h-10.709v28.709h-6.148V227.368z"/>
	<path fill="#FFFFFF" d="M434.534,221.863h6.146v34.214h-6.146V221.863z"/>
	<path fill="#FFFFFF" d="M458.032,221.863h10.709c6.994,0,12.1,3.669,12.1,10.065s-5.104,9.918-12.1,9.918h-4.607v14.23h-6.102
		V221.863L458.032,221.863z M468.741,236.094c4.217,0,6.002-1.438,6.002-4.166c0-2.727-1.834-4.312-6.002-4.312h-4.607v8.479
		L468.741,236.094L468.741,236.094z"/>
	<path fill="#FFFFFF" d="M492.04,246.407l6.098-1.537c0.398,3.818,3.324,5.9,6.994,5.9c3.617,0,5.652-1.637,5.652-4.71
		c0-5.901-16.463-4.661-16.463-15.521c0-5.651,4.906-9.172,10.512-9.172c4.412,0,8.229,1.834,10.561,5.998l-5.104,3.125
		c-1.193-2.33-3.223-3.67-5.455-3.67c-2.332,0-4.264,1.686-4.264,3.77c0,5.453,16.461,4.214,16.461,15.568
		c0,6.395-5.355,10.311-11.898,10.311C499.081,256.472,493.129,253.15,492.04,246.407z"/>
	<path fill="#FFFFFF" d="M542.26,242.738l-13.932-20.875h7.236l9.77,15.37l9.717-15.37h7.24l-13.881,20.875v13.339h-6.15V242.738z"
		/>
</g>
<g>
	<path fill="#FFFFFF" stroke="#FFFFFF" stroke-width="2" stroke-miterlimit="10" d="M586.573,284.668h-330.14v-87.633h330.14
		V284.668z M259.437,281.667h324.13v-81.625h-324.13V281.667z"/>
</g>
<g>
	
		<rect x="341.405" y="208.533" transform="matrix(0.8313 0.5557 -0.5557 0.8313 202.1389 -146.7787)" fill="#FFFFFF" stroke="#FFFFFF" stroke-width="2" stroke-miterlimit="10" width="3.005" height="102.258"/>
</g>
<g>
	<g>
		<path fill="#FFFFFF" d="M-53.585,177.193h-41.86v-41.858h41.86V177.193z M-90.795,172.542h32.559v-32.557h-32.559V172.542z"/>
	</g>
	<g>
		<path fill="#FFFFFF" d="M211.542,242.693l-45.467-42.378l1.585-1.701c5.857-6.285,14.145-9.89,22.741-9.89
			c7.888,0,15.412,2.963,21.185,8.344c12.535,11.685,13.229,31.388,1.547,43.923L211.542,242.693z M172.722,200.154l38.514,35.896
			c8.33-10.67,7.263-26.178-2.823-35.578c-4.91-4.574-11.308-7.096-18.015-7.096C183.868,193.375,177.546,195.823,172.722,200.154z"
			/>
	</g>
	<g>
		<path fill="#FFFFFF" d="M-9.5,181.443c-1.186,0-2.242,0.12-3.172,0.36c-0.93,0.24-1.762,0.658-2.5,1.25
			c-0.737,0.594-1.395,1.418-1.97,2.475c-0.577,1.059-1.105,2.402-1.586,4.037h-0.624v-8.795h30.133v8.795h-0.625
			c-0.48-1.635-1.008-2.979-1.585-4.037c-0.577-1.057-1.234-1.881-1.97-2.475c-0.739-0.592-1.572-1.01-2.501-1.25
			c-0.93-0.24-1.986-0.36-3.17-0.36h-1.732v32.872H3.62v0.674h-15.81v-0.674h4.421v-32.872H-9.5z"/>
		<path fill="#FFFFFF" d="M39.954,180.77v0.673h-4.423v32.872h4.423v0.674H24.142v-0.674h4.42v-32.872h-4.42v-0.673H39.954
			L39.954,180.77z"/>
		<path fill="#FFFFFF" d="M68.883,214.315v0.674H53.072v-0.674h4.421v-32.872h-4.421v-0.673h4.421c1.634,0,3.269-0.023,4.902-0.072
			c1.634-0.047,3.269-0.072,4.902-0.072c1.442,0,2.996,0.121,4.661,0.361s3.204,0.689,4.614,1.346
			c1.408,0.656,2.586,1.57,3.532,2.739c0.945,1.169,1.417,2.685,1.417,4.541c0,1.25-0.304,2.427-0.912,3.532
			c-0.609,1.105-1.539,2.066-2.788,2.884c-1.249,0.818-2.82,1.466-4.71,1.946c-1.891,0.48-4.117,0.722-6.68,0.722H64.46v15.618
			H68.883L68.883,214.315z M65.952,198.024c2.722,0,4.692-0.617,5.91-1.852c1.217-1.232,1.827-3.322,1.827-6.271
			c0-2.787-0.528-4.917-1.585-6.393c-1.059-1.473-2.979-2.209-5.769-2.209c-0.353,0-0.688,0.016-1.008,0.047
			c-0.321,0.033-0.608,0.064-0.866,0.097v16.581H65.952z"/>
		<path fill="#FFFFFF" d="M95.94,204.32c0.063,0.386,0.176,0.89,0.336,1.515c0.16,0.623,0.394,1.297,0.698,2.02
			c0.304,0.723,0.688,1.458,1.153,2.21c0.465,0.753,1.034,1.45,1.706,2.091c0.736,0.737,1.449,1.299,2.138,1.684
			s1.347,0.664,1.972,0.841c0.624,0.177,1.217,0.272,1.777,0.288c0.56,0.018,1.081,0.025,1.562,0.025
			c1.698,0,3.091-0.268,4.182-0.795c1.088-0.527,1.946-1.177,2.57-1.945c0.625-0.77,1.066-1.576,1.322-2.428
			c0.256-0.85,0.384-1.594,0.384-2.234c0-1.186-0.279-2.162-0.84-2.932c-0.562-0.771-1.307-1.408-2.234-1.924
			c-0.93-0.512-1.988-0.943-3.174-1.298c-1.186-0.353-2.402-0.712-3.651-1.081c-1.251-0.365-2.468-0.801-3.651-1.297
			c-1.188-0.496-2.244-1.139-3.174-1.924c-0.93-0.783-1.674-1.754-2.234-2.906c-0.561-1.152-0.842-2.598-0.842-4.326
			c0-1.279,0.289-2.514,0.866-3.697c0.576-1.188,1.377-2.236,2.402-3.148c1.025-0.913,2.251-1.65,3.678-2.211
			c1.425-0.561,2.97-0.842,4.637-0.842c1.057,0,1.986,0.098,2.787,0.289c0.8,0.19,1.505,0.393,2.114,0.601
			c0.608,0.209,1.146,0.409,1.61,0.601c0.464,0.193,0.891,0.289,1.274,0.289c0.448,0,0.745-0.072,0.888-0.217
			c0.146-0.145,0.297-0.408,0.457-0.793h0.77v9.131H116.8c-0.385-1.121-0.793-2.227-1.227-3.314
			c-0.433-1.09-0.985-2.072-1.657-2.957c-0.674-0.881-1.521-1.594-2.548-2.139c-1.025-0.543-2.323-0.815-3.893-0.815
			c-1.282,0-2.412,0.177-3.389,0.528c-0.977,0.353-1.803,0.816-2.476,1.395c-0.672,0.577-1.186,1.219-1.538,1.923
			c-0.351,0.705-0.526,1.427-0.526,2.163c0,1.121,0.295,2.051,0.887,2.787c0.594,0.736,1.372,1.367,2.332,1.896
			c0.961,0.528,2.059,0.984,3.291,1.369c1.234,0.385,2.501,0.785,3.797,1.201c1.299,0.418,2.564,0.874,3.797,1.371
			c1.232,0.496,2.332,1.129,3.292,1.896c0.963,0.77,1.737,1.699,2.331,2.789c0.594,1.088,0.891,2.436,0.891,4.037
			c0,1.566-0.321,3.059-0.963,4.469c-0.641,1.41-1.545,2.644-2.715,3.701c-1.17,1.057-2.563,1.896-4.18,2.521
			c-1.62,0.626-3.422,0.938-5.408,0.938c-0.993,0-1.979-0.099-2.955-0.289c-0.979-0.191-1.892-0.394-2.74-0.603
			c-0.848-0.207-1.602-0.407-2.259-0.601c-0.657-0.192-1.145-0.289-1.466-0.289c-0.448,0-0.77,0.07-0.96,0.218
			c-0.193,0.146-0.369,0.438-0.529,0.89h-0.77V204.32H95.94z"/>
		<path fill="#FFFFFF" d="M147.7,180.77v0.673h-3.797l9.804,16.772l8.845-16.772h-4.182v-0.673h9.178v0.673h-4.18l-9.276,17.638
			v15.234h4.47v0.674h-15.859v-0.674h4.423v-13.408l-11.15-19.464h-3.749v-0.673H147.7L147.7,180.77z"/>
	</g>
	<g>
		<path fill="#FFFFFF" d="M192.359,245.922h-342.236v-91.985h342.236V245.922z M-145.227,241.271h332.935v-82.683h-332.935V241.271z
			"/>
	</g>
	<g>
		
			<rect x="-66.874" y="166.538" transform="matrix(0.8316 0.5554 -0.5554 0.8316 110.9271 72.7808)" fill="#FFFFFF" width="4.649" height="105.535"/>
	</g>
</g>
<g>
	<g>
		<polygon fill="#F0534F" points="-16.606,-41.059 -19.319,-42.859 42.332,-134.559 45.044,-132.761 		"/>
		<path fill="#F0534F" d="M-16.227-39.158l-5.005-3.321l63.186-93.982l5.003,3.319L-16.227-39.158z M-17.405-43.24l0.421,0.279
			l60.115-89.419l-0.419-0.278L-17.405-43.24z"/>
	</g>
</g>
<g>
	<path fill="#F0534F" d="M110.818-122.189c-1.155-7.207-3.906-9.352-10.837-9.462v29.321c0,3.629,1.32,4.62,5.446,4.674v1.651
		H85.623v-1.651c4.016,0,5.336-0.935,5.336-4.674v-29.321c-6.931,0.11-9.681,2.255-10.836,9.462h-1.486v-11.608h33.666v11.607
		L110.818-122.189L110.818-122.189z"/>
	<path fill="#F0534F" d="M125.677-96.005v-1.651c3.851,0,5.28-0.824,5.28-4.345v-25.69c0-3.521-1.541-4.455-5.28-4.455v-1.651
		h19.583v1.651c-3.961,0.109-5.281,0.825-5.281,4.455v25.689c0,3.575,1.814,4.345,5.281,4.345v1.652H125.677L125.677-96.005z"/>
	<path fill="#F0534F" d="M176.125-112.783h-3.576v10.453c0,3.024,0.385,4.29,4.951,4.674v1.651h-18.592v-1.651
		c3.246-0.164,4.619-1.209,4.619-4.674v-25.086c0-3.576-1.539-4.621-4.619-4.73v-1.651h19.088c7.041,0,13.258,2.916,13.258,10.122
		C191.252-115.259,183.606-112.783,176.125-112.783z M175.465-131.761c-2.312,0-2.916,0.935-2.916,2.97v13.698
		c6.16,0,9.242,0,9.242-8.527C181.792-128.736,180.032-131.761,175.465-131.761z"/>
	<path fill="#F0534F" d="M217.058-95.125c-2.86,0-4.729-0.441-7.919-1.486c-0.661-0.163-1.155-0.329-1.652-0.329
		c-0.988,0-1.318,0.66-1.539,1.815h-1.65v-13.918h1.65c1.045,7.426,6.158,12.047,11.276,12.047c4.18,0,6.874-2.751,6.874-6.161
		c0-2.86-1.484-4.566-4.842-6.161l-5.828-2.751c-5.612-2.64-8.637-5.996-8.637-11.387c0-7.041,4.783-11.222,11.992-11.222
		c1.76,0,3.407,0.274,4.949,0.771c2.311,0.77,3.575,1.045,4.014,1.045c1.047,0,1.377-0.55,1.815-1.815h1.647v12.322h-1.647
		c-1.597-6.546-5.558-10.341-10.728-10.341c-3.299,0-6.105,1.925-6.105,5.335c0,2.641,1.706,4.621,5.171,6.161l5.282,2.42
		c5.996,2.75,9.734,6.161,9.734,11.992C230.92-99.636,224.814-95.125,217.058-95.125z"/>
	<path fill="#F0534F" d="M276.862-127.361l-8.912,14.908v9.902c0,3.739,1.32,4.895,5.336,4.895v1.651h-19.584v-1.651
		c4.072-0.054,5.281-1.045,5.281-5.17v-7.812l-9.734-18.042c-1.543-2.696-3.246-3.465-4.787-3.465v-1.651h18.648v1.651
		c-1.156,0-4.4-0.275-4.4,1.595c0,0.66,0.328,1.595,1.318,3.521l6.49,12.597l6.768-11.441c1.209-2.036,1.596-3.081,1.596-4.125
		c0-1.54-1.266-2.145-4.678-2.145v-1.651h12.269v1.651C280.215-131.761,279.446-131.541,276.862-127.361z"/>
</g>
<g>
	<path fill="#F0534F" d="M305.831-72.867H-65.502v-81.61h371.333V-72.867z M-61.376-76.994h363.08v-73.356h-363.08V-76.994z"/>
</g>
<g>
	<path fill="#F9F6F2" d="M170.276,41.811c-1.155-7.207-3.906-9.352-10.837-9.462V61.67c0,3.629,1.32,4.62,5.446,4.674v1.651h-19.805
		v-1.651c4.017,0,5.336-0.935,5.336-4.674V32.349c-6.931,0.11-9.681,2.255-10.836,9.462h-1.485V30.203h33.666V41.81L170.276,41.811
		L170.276,41.811z"/>
	<path fill="#F9F6F2" d="M185.134,67.995v-1.651c3.851,0,5.28-0.824,5.28-4.345v-25.69c0-3.521-1.541-4.455-5.28-4.455v-1.651
		h19.583v1.651c-3.961,0.109-5.281,0.825-5.281,4.455v25.689c0,3.575,1.814,4.345,5.281,4.345v1.652H185.134L185.134,67.995z"/>
	<path fill="#F9F6F2" d="M235.583,51.217h-3.576V61.67c0,3.024,0.385,4.29,4.951,4.674v1.651h-18.592v-1.651
		c3.246-0.164,4.618-1.209,4.618-4.674V36.584c0-3.576-1.538-4.621-4.618-4.73v-1.651h19.088c7.041,0,13.258,2.916,13.258,10.122
		C250.709,48.741,243.063,51.217,235.583,51.217z M234.922,32.239c-2.312,0-2.916,0.935-2.916,2.97v13.698
		c6.16,0,9.242,0,9.242-8.527C241.249,35.264,239.489,32.239,234.922,32.239z"/>
	<path fill="#F9F6F2" d="M276.515,68.875c-2.86,0-4.729-0.441-7.919-1.486c-0.661-0.163-1.155-0.329-1.652-0.329
		c-0.988,0-1.318,0.66-1.539,1.815h-1.65V54.957h1.65c1.045,7.426,6.158,12.047,11.276,12.047c4.18,0,6.874-2.751,6.874-6.161
		c0-2.86-1.484-4.566-4.842-6.161l-5.828-2.751c-5.612-2.64-8.637-5.996-8.637-11.387c0-7.041,4.783-11.222,11.992-11.222
		c1.76,0,3.407,0.274,4.949,0.771c2.311,0.77,3.575,1.045,4.014,1.045c1.047,0,1.377-0.55,1.815-1.815h1.647v12.322h-1.647
		c-1.597-6.546-5.558-10.341-10.728-10.341c-3.299,0-6.105,1.925-6.105,5.335c0,2.641,1.706,4.621,5.171,6.161l5.282,2.42
		c5.996,2.75,9.734,6.161,9.734,11.992C290.377,64.364,284.271,68.875,276.515,68.875z"/>
	<path fill="#F9F6F2" d="M336.319,36.639l-8.912,14.908v9.902c0,3.739,1.32,4.895,5.336,4.895v1.651h-19.584v-1.651
		c4.072-0.054,5.281-1.045,5.281-5.17v-7.812l-9.734-18.042c-1.543-2.696-3.246-3.465-4.787-3.465v-1.651h18.648v1.651
		c-1.156,0-4.4-0.275-4.4,1.595c0,0.66,0.328,1.595,1.318,3.521l6.488,12.597l6.77-11.441c1.209-2.036,1.596-3.081,1.596-4.125
		c0-1.54-1.266-2.145-4.678-2.145v-1.651h12.268v1.651C339.672,32.239,338.903,32.459,336.319,36.639z"/>
</g>
<g>
	<g>
		<polygon fill="#F9F4EA" points="499.966,72.359 497.253,70.559 558.905,-21.141 561.616,-19.343 		"/>
		<path fill="#F9F4EA" d="M500.345,74.26l-5.005-3.321l63.186-93.982l5.004,3.319L500.345,74.26z M499.167,70.178l0.421,0.279
			l60.115-89.419l-0.42-0.278L499.167,70.178z"/>
	</g>
</g>
<g>
	<path fill="#F9F4EA" d="M627.39-8.771c-1.155-7.207-3.905-9.352-10.837-9.462v29.321c0,3.629,1.32,4.62,5.446,4.674v1.651h-19.804
		v-1.651c4.016,0,5.336-0.935,5.336-4.674v-29.321c-6.932,0.11-9.682,2.255-10.836,9.462h-1.486v-11.608h33.666v11.607L627.39-8.771
		L627.39-8.771z"/>
	<path fill="#F9F4EA" d="M642.25,17.413v-1.651c3.851,0,5.28-0.824,5.28-4.345v-25.69c0-3.521-1.541-4.455-5.28-4.455v-1.651h19.583
		v1.651c-3.961,0.109-5.281,0.825-5.281,4.455v25.689c0,3.575,1.814,4.345,5.281,4.345v1.652H642.25L642.25,17.413z"/>
	<path fill="#F9F4EA" d="M692.698,0.635h-3.576v10.453c0,3.024,0.385,4.29,4.951,4.674v1.651h-18.592v-1.651
		c3.246-0.164,4.618-1.209,4.618-4.674v-25.086c0-3.576-1.538-4.621-4.618-4.73v-1.651h19.088c7.041,0,13.258,2.916,13.258,10.122
		C707.825-1.841,700.178,0.635,692.698,0.635z M692.038-18.343c-2.312,0-2.916,0.935-2.916,2.97v13.698c6.16,0,9.242,0,9.242-8.527
		C698.364-15.318,696.604-18.343,692.038-18.343z"/>
	<path fill="#F9F4EA" d="M733.63,18.293c-2.86,0-4.729-0.441-7.919-1.486c-0.661-0.163-1.155-0.329-1.652-0.329
		c-0.988,0-1.318,0.66-1.539,1.815h-1.65V4.375h1.65c1.045,7.426,6.158,12.047,11.276,12.047c4.18,0,6.874-2.751,6.874-6.161
		c0-2.86-1.484-4.566-4.842-6.161L730,1.349c-5.612-2.64-8.637-5.996-8.637-11.387c0-7.041,4.783-11.222,11.992-11.222
		c1.76,0,3.407,0.274,4.949,0.771c2.311,0.77,3.575,1.045,4.014,1.045c1.047,0,1.377-0.55,1.815-1.815h1.647v12.322h-1.647
		c-1.597-6.546-5.558-10.341-10.728-10.341c-3.299,0-6.105,1.925-6.105,5.335c0,2.641,1.706,4.621,5.171,6.161l5.282,2.42
		c5.996,2.75,9.734,6.161,9.734,11.992C747.493,13.782,741.386,18.293,733.63,18.293z"/>
	<path fill="#F9F4EA" d="M793.434-13.943l-8.912,14.908v9.902c0,3.739,1.32,4.895,5.336,4.895v1.651h-19.584v-1.651
		c4.072-0.054,5.281-1.045,5.281-5.17V2.78l-9.734-18.042c-1.543-2.696-3.246-3.465-4.787-3.465v-1.651h18.648v1.651
		c-1.156,0-4.4-0.275-4.4,1.595c0,0.66,0.328,1.595,1.318,3.521l6.488,12.597l6.77-11.441c1.209-2.036,1.596-3.081,1.596-4.125
		c0-1.54-1.266-2.145-4.678-2.145v-1.651h12.268v1.651C796.788-18.343,796.018-18.123,793.434-13.943z"/>
</g>
<g>
	<path fill="#F9F4EA" d="M822.403,40.551H451.071v-81.61h371.332V40.551z M455.196,36.424h363.08v-73.356h-363.08V36.424z"/>
</g>
</svg>
